<svg
  xmlns="http://www.w3.org/2000/svg"
  viewBox="0 0 20 20"
  width="100px"
  height="100px"
  fill="none"
  stroke="currentColor"
  stroke-width="1.5"
>
  <path d="M10 1C15 1 19 5.48 19 11C19 15.9 15.8 19.3 12 19.98C11.55 20.07 11.35 19.85 11.35 19.6C11.35 19.33 11.36 18.53 11.36 17.64C11.36 16.95 11.17 16.48 10.92 16.21C12.61 15.96 14.37 15.14 14.37 11.96C14.37 11.11 14.08 10.37 13.58 9.8C13.67 9.56 14.02 8.56 13.56 7.26C13.56 7.26 12.83 7 11.25 8.01C10.65 7.85 10 7.77 9.36 7.76C8.71 7.77 8.07 7.85 7.48 8.01C5.9 7 5.17 7.26 5.17 7.26C4.72 8.56 5.07 9.56 5.15 9.8C4.66 10.37 4.37 11.11 4.37 11.96C4.37 15.14 6.13 15.96 7.82 16.21C7.58 16.45 7.38 16.89 7.3 17.46C6.79 17.69 5.79 18.03 5.1 16.67C5.1 16.67 4.68 15.94 4.02 15.88C4.02 15.88 3.42 15.87 4.05 16.3C4.05 16.3 4.46 16.51 4.75 17.2C4.75 17.2 5.08 18.06 7.21 17.51C7.22 18.12 7.24 18.65 7.24 18.91C7.24 19.18 7.1 19.43 6.75 19.36C3.64 18.22 1 15.3 1 11C1 5.48 5 1 10 1Z" />
</svg>
